<?xml version="1.0" encoding="UTF-8"?>
<svg width="180px" height="51px" viewBox="0 0 180 51" version="1.1" xmlns="http://www.w3.org/2000/svg" xmlns:xlink="http://www.w3.org/1999/xlink">
    <!-- Generator: Sketch 55.2 (78181) - https://sketchapp.com -->
    <title>Eamli_Logo_White</title>
    <desc>Created with Sketch.</desc>
    <g id="Page-1" stroke="none" stroke-width="1" fill="none" fill-rule="evenodd">
        <g id="Eamli_Logo_White" fill="#FFFFFF" fill-rule="nonzero">
            <path d="M42.5320755,6.54339623 L42.0509434,6.15849057 C37.6245283,2.30943396 31.754717,0 25.5,0 C11.4509434,0 0,11.4509434 0,25.5 C0,39.5490566 11.4509434,51 25.5,51 C39.5490566,51 51,39.5490566 51,25.5 C50.9037736,17.9943396 47.7283019,11.2584906 42.5320755,6.54339623 Z M25.1305009,5.49230769 C30.3034884,5.49230769 34.9974955,7.54365153 38.4461538,10.8648749 C34.5185152,16.2374421 29.4413238,20.3401297 23.5019678,23.5636701 C17.9457961,26.5918443 12.1022361,28.5455051 5.97128801,29.8153846 C5.68389982,28.4478221 5.49230769,26.9825765 5.49230769,25.6150139 C5.49230769,14.4791474 14.3055456,5.49230769 25.1305009,5.49230769 Z M25.1887895,44.7230769 C17.6609422,44.7230769 11.0859869,40.43652 7.84615385,34.1495699 C21.0913536,31.2918653 32.9072153,25.671713 41.7691115,14.9076923 C43.5796064,17.8606537 44.7230769,21.3851561 44.7230769,25.1954289 C44.7230769,36.0547063 36.0517591,44.7230769 25.1887895,44.7230769 Z" id="Shape"></path>
            <path d="M86.112,33.044 C86.4933352,33.044 86.8226653,33.1999984 87.1,33.512 C87.3773347,33.8240016 87.516,34.2226642 87.516,34.708 C87.516,35.574671 86.9093394,36.3719964 85.696,37.1 C84.4479938,37.8280036 83.1306736,38.3739982 81.744,38.738 C80.3573264,39.1020018 79.0053399,39.284 77.688,39.284 C73.7706471,39.284 70.676678,38.1226783 68.406,35.8 C66.135322,33.4773217 65,30.2706871 65,26.18 C65,23.579987 65.5026616,21.2833433 66.508,19.29 C67.5133384,17.2966567 68.9259909,15.7453389 70.746,14.636 C72.5660091,13.5266611 74.6373217,12.972 76.96,12.972 C80.2533498,12.972 82.870657,14.0466559 84.812,16.196 C86.753343,18.3453441 87.724,21.257315 87.724,24.932 C87.724,25.6253368 87.5853347,26.1279984 87.308,26.44 C87.0306653,26.7520016 86.5800031,26.908 85.956,26.908 L69.212,26.908 C69.5240016,32.8706965 72.3493066,35.852 77.688,35.852 C79.0400068,35.852 80.2013285,35.6700018 81.172,35.306 C82.1426715,34.9419982 83.1826611,34.4480031 84.292,33.824 C85.1933378,33.3039974 85.7999984,33.044 86.112,33.044 Z M77.012,16.248 C74.7933222,16.248 73.0166733,16.9413264 71.682,18.328 C70.3473267,19.7146736 69.5586679,21.6733207 69.316,24.204 L84.032,24.204 C83.9626663,21.6386538 83.3213394,19.6713402 82.108,18.302 C80.8946606,16.9326598 79.1960109,16.248 77.012,16.248 Z M104.26,12.972 C110.604032,12.972 113.776,16.2999667 113.776,22.956 L113.776,37.1 C113.776,37.7240031 113.594002,38.2266648 113.23,38.608 C112.865998,38.9893352 112.372003,39.18 111.748,39.18 C111.123997,39.18 110.621335,38.9893352 110.24,38.608 C109.858665,38.2266648 109.668,37.7240031 109.668,37.1 L109.668,34.604 C109.00933,36.0946741 108.004007,37.2473293 106.652,38.062 C105.299993,38.8766707 103.740009,39.284 101.972,39.284 C100.342659,39.284 98.8433402,38.95467 97.474,38.296 C96.1046598,37.63733 95.0213373,36.7186726 94.224,35.54 C93.4266627,34.3613274 93.028,33.0613404 93.028,31.64 C93.028,29.7333238 93.5133285,28.2513386 94.484,27.194 C95.4546715,26.1366614 97.0493222,25.3740023 99.268,24.906 C101.486678,24.4379977 104.57198,24.204 108.524,24.204 L109.668,24.204 L109.668,22.488 C109.668,20.4079896 109.243338,18.8826715 108.394,17.912 C107.544662,16.9413285 106.166676,16.456 104.26,16.456 C101.902655,16.456 99.5106788,17.0973269 97.084,18.38 C96.1479953,18.9693363 95.4893352,19.264 95.108,19.264 C94.6919979,19.264 94.3453347,19.1080016 94.068,18.796 C93.7906653,18.4839984 93.652,18.0853358 93.652,17.6 C93.652,17.1146642 93.7993319,16.6900018 94.094,16.326 C94.3886681,15.9619982 94.86533,15.5893352 95.524,15.208 C96.7373394,14.5146632 98.1153256,13.9686687 99.658,13.57 C101.200674,13.1713313 102.734659,12.972 104.26,12.972 Z M102.544,35.956 C104.62401,35.956 106.331327,35.254007 107.666,33.85 C109.000673,32.445993 109.668,30.6346778 109.668,28.416 L109.668,26.908 L108.732,26.908 C105.681318,26.908 103.358675,27.0379987 101.764,27.298 C100.169325,27.5580013 99.0340034,27.9913303 98.358,28.598 C97.6819966,29.2046697 97.344,30.0973274 97.344,31.276 C97.344,32.6280068 97.8379951,33.7459956 98.826,34.63 C99.8140049,35.5140044 101.053326,35.956 102.544,35.956 Z M148.304,13.128 C153.850694,13.128 156.624,16.3173014 156.624,22.696 L156.624,37.984 C156.624,38.3306684 156.528668,38.6166655 156.338,38.842 C156.147332,39.0673345 155.878668,39.18 155.532,39.18 C155.185332,39.18 154.916668,39.0673345 154.726,38.842 C154.535332,38.6166655 154.44,38.3306684 154.44,37.984 L154.44,22.956 C154.44,20.2519865 153.954672,18.2846728 152.984,17.054 C152.013328,15.8233272 150.470677,15.208 148.356,15.208 C145.929321,15.208 143.996674,16.0226585 142.558,17.652 C141.119326,19.2813415 140.4,21.4826528 140.4,24.256 L140.4,37.984 C140.4,38.3306684 140.304668,38.6166655 140.114,38.842 C139.923332,39.0673345 139.654668,39.18 139.308,39.18 C138.961332,39.18 138.692668,39.0673345 138.502,38.842 C138.311332,38.6166655 138.216,38.3306684 138.216,37.984 L138.216,22.956 C138.216,20.2519865 137.730672,18.2846728 136.76,17.054 C135.789328,15.8233272 134.246677,15.208 132.132,15.208 C129.670654,15.208 127.72934,16.0226585 126.308,17.652 C124.88666,19.2813415 124.176,21.4826528 124.176,24.256 L124.176,37.984 C124.176,38.3306684 124.080668,38.6166655 123.89,38.842 C123.699332,39.0673345 123.430668,39.18 123.084,39.18 C122.737332,39.18 122.468668,39.0673345 122.278,38.842 C122.087332,38.6166655 121.992,38.3306684 121.992,37.984 L121.992,14.428 C121.992,13.6306627 122.355996,13.232 123.084,13.232 C123.430668,13.232 123.690666,13.335999 123.864,13.544 C124.037334,13.752001 124.124,14.0466648 124.124,14.428 L124.124,18.172 C124.817337,16.5426585 125.84866,15.294671 127.218,14.428 C128.58734,13.561329 130.207991,13.128 132.08,13.128 C136.13602,13.128 138.735994,14.8093165 139.88,18.172 C140.573337,16.6119922 141.665326,15.3813378 143.156,14.48 C144.646674,13.5786622 146.362657,13.128 148.304,13.128 Z M166.452,39.18 C166.105332,39.18 165.836668,39.076001 165.646,38.868 C165.455332,38.659999 165.36,38.3653352 165.36,37.984 L165.36,3.196 C165.36,2.81466476 165.455332,2.52000104 165.646,2.312 C165.836668,2.10399896 166.105332,2 166.452,2 C166.764002,2 167.023999,2.11266554 167.232,2.338 C167.440001,2.56333446 167.544,2.8493316 167.544,3.196 L167.544,37.984 C167.544,38.3306684 167.440001,38.6166655 167.232,38.842 C167.023999,39.0673345 166.764002,39.18 166.452,39.18 Z M177.476,39.18 C177.129332,39.18 176.860668,39.076001 176.67,38.868 C176.479332,38.659999 176.384,38.3653352 176.384,37.984 L176.384,14.376 C176.384,14.0293316 176.479332,13.752001 176.67,13.544 C176.860668,13.335999 177.129332,13.232 177.476,13.232 C177.822668,13.232 178.091332,13.335999 178.282,13.544 C178.472668,13.752001 178.568,14.0293316 178.568,14.376 L178.568,37.984 C178.568,38.3653352 178.472668,38.659999 178.282,38.868 C178.091332,39.076001 177.822668,39.18 177.476,39.18 Z M177.476,6.992 C176.955997,6.992 176.505335,6.8186684 176.124,6.472 C175.742665,6.1253316 175.552,5.67466944 175.552,5.12 C175.552,4.53066372 175.733998,4.0626684 176.098,3.716 C176.462002,3.3693316 176.921331,3.196 177.476,3.196 C178.030669,3.196 178.489998,3.3693316 178.854,3.716 C179.218002,4.0626684 179.4,4.53066372 179.4,5.12 C179.4,5.67466944 179.209335,6.1253316 178.828,6.472 C178.446665,6.8186684 177.996003,6.992 177.476,6.992 Z" id="eamli"></path>
        </g>
    </g>
</svg>